STARTFONT 2.1
FONT -Monotype-Rockwell-Bold-R-Normal--12-120-72-72-P-61-ISO8859-1
SIZE 12 72 72
FONTBOUNDINGBOX 15 16 -2 -3

STARTPROPERTIES 22
FOUNDRY "Monotype"
FAMILY_NAME "Rockwell"
WEIGHT_NAME "Bold"
SLANT "R"
SETWIDTH_NAME "Normal"
ADD_STYLE_NAME ""
PIXEL_SIZE 12
POINT_SIZE 120
RESOLUTION_X 72
RESOLUTION_Y 72
SPACING "P"
AVERAGE_WIDTH 61
CHARSET_REGISTRY "ISO8859"
CHARSET_ENCODING "1"
FULL_NAME "Rockwell-Bold"
COPYRIGHT "Copyright (c) 1991 The Monotype Corporation plc."
WEIGHT 10
X_HEIGHT 6
QUAD_WIDTH 8
DEFAULT_CHAR 32
FONT_DESCENT 3
FONT_ASCENT 11
ENDPROPERTIES

CHARS 190

STARTCHAR space
ENCODING 32
SWIDTH 250 0
DWIDTH 3 0
BBX 1 1 0 0
BITMAP
00
ENDCHAR

STARTCHAR exclam
ENCODING 33
SWIDTH 354 0
DWIDTH 4 0
BBX 3 9 2 0
BITMAP
C0
C0
C0
C0
40
40
00
60
60
ENDCHAR

STARTCHAR quotedbl
ENCODING 34
SWIDTH 552 0
DWIDTH 7 0
BBX 5 4 1 5
BITMAP
D8
D8
D8
90
ENDCHAR

STARTCHAR numbersign
ENCODING 35
SWIDTH 668 0
DWIDTH 8 0
BBX 7 9 0 0
BITMAP
26
24
24
FE
64
6C
FE
48
48
ENDCHAR

STARTCHAR dollar
ENCODING 36
SWIDTH 563 0
DWIDTH 7 0
BBX 5 10 1 -1
BITMAP
70
F8
A8
A0
70
38
28
A8
F0
20
ENDCHAR

STARTCHAR percent
ENCODING 37
SWIDTH 927 0
DWIDTH 11 0
BBX 9 9 1 0
BITMAP
E100
A200
A400
A400
EB80
1280
1280
2280
4380
ENDCHAR

STARTCHAR ampersand
ENCODING 38
SWIDTH 802 0
DWIDTH 10 0
BBX 9 9 0 0
BITMAP
1800
2400
2400
1C00
7980
EF00
CE00
C600
7B80
ENDCHAR

STARTCHAR quoteright
ENCODING 39
SWIDTH 354 0
DWIDTH 4 0
BBX 2 4 1 5
BITMAP
C0
C0
40
C0
ENDCHAR

STARTCHAR parenleft
ENCODING 40
SWIDTH 344 0
DWIDTH 4 0
BBX 3 12 1 -3
BITMAP
20
60
40
C0
C0
C0
C0
C0
C0
40
60
20
ENDCHAR

STARTCHAR parenright
ENCODING 41
SWIDTH 344 0
DWIDTH 4 0
BBX 3 12 0 -3
BITMAP
80
C0
40
60
60
60
60
60
60
40
C0
80
ENDCHAR

STARTCHAR asterisk
ENCODING 42
SWIDTH 573 0
DWIDTH 7 0
BBX 6 6 0 2
BITMAP
30
94
FC
30
78
50
ENDCHAR

STARTCHAR plus
ENCODING 43
SWIDTH 668 0
DWIDTH 8 0
BBX 7 7 0 1
BITMAP
10
10
10
FE
10
10
10
ENDCHAR

STARTCHAR comma
ENCODING 44
SWIDTH 354 0
DWIDTH 4 0
BBX 2 4 1 -2
BITMAP
C0
C0
40
C0
ENDCHAR

STARTCHAR minus
ENCODING 45
SWIDTH 668 0
DWIDTH 8 0
BBX 7 1 0 3
BITMAP
FE
ENDCHAR

STARTCHAR period
ENCODING 46
SWIDTH 354 0
DWIDTH 4 0
BBX 2 2 1 0
BITMAP
C0
C0
ENDCHAR

STARTCHAR slash
ENCODING 47
SWIDTH 508 0
DWIDTH 5 0
BBX 4 12 0 -3
BITMAP
10
10
20
20
20
20
40
40
40
40
80
80
ENDCHAR

STARTCHAR zero
ENCODING 48
SWIDTH 552 0
DWIDTH 7 0
BBX 6 9 0 0
BITMAP
78
48
CC
CC
CC
CC
CC
48
78
ENDCHAR

STARTCHAR one
ENCODING 49
SWIDTH 552 0
DWIDTH 7 0
BBX 4 9 1 0
BITMAP
E0
60
60
60
60
60
60
60
F0
ENDCHAR

STARTCHAR two
ENCODING 50
SWIDTH 552 0
DWIDTH 7 0
BBX 5 9 1 0
BITMAP
70
98
98
18
30
60
40
88
F8
ENDCHAR

STARTCHAR three
ENCODING 51
SWIDTH 552 0
DWIDTH 7 0
BBX 5 9 1 0
BITMAP
70
98
18
18
30
18
18
98
70
ENDCHAR

STARTCHAR four
ENCODING 52
SWIDTH 552 0
DWIDTH 7 0
BBX 6 9 0 0
BITMAP
18
38
38
58
58
98
FC
18
3C
ENDCHAR

STARTCHAR five
ENCODING 53
SWIDTH 552 0
DWIDTH 7 0
BBX 5 9 1 0
BITMAP
F8
98
80
F0
98
18
18
98
70
ENDCHAR

STARTCHAR six
ENCODING 54
SWIDTH 552 0
DWIDTH 7 0
BBX 6 9 0 0
BITMAP
38
6C
C0
C0
F8
CC
CC
4C
78
ENDCHAR

STARTCHAR seven
ENCODING 55
SWIDTH 552 0
DWIDTH 7 0
BBX 4 9 1 0
BITMAP
F0
90
30
20
20
60
60
60
F0
ENDCHAR

STARTCHAR eight
ENCODING 56
SWIDTH 552 0
DWIDTH 7 0
BBX 6 9 0 0
BITMAP
78
CC
CC
CC
78
CC
CC
CC
78
ENDCHAR

STARTCHAR nine
ENCODING 57
SWIDTH 552 0
DWIDTH 7 0
BBX 6 9 0 0
BITMAP
78
C8
CC
CC
CC
7C
0C
C8
70
ENDCHAR

STARTCHAR colon
ENCODING 58
SWIDTH 354 0
DWIDTH 4 0
BBX 2 6 1 0
BITMAP
C0
C0
00
00
C0
C0
ENDCHAR

STARTCHAR semicolon
ENCODING 59
SWIDTH 354 0
DWIDTH 4 0
BBX 2 9 1 -3
BITMAP
C0
C0
00
00
C0
C0
40
40
80
ENDCHAR

STARTCHAR less
ENCODING 60
SWIDTH 667 0
DWIDTH 8 0
BBX 7 7 0 0
BITMAP
02
0E
70
C0
70
0E
02
ENDCHAR

STARTCHAR equal
ENCODING 61
SWIDTH 667 0
DWIDTH 8 0
BBX 7 4 1 2
BITMAP
FE
00
00
FE
ENDCHAR

STARTCHAR greater
ENCODING 62
SWIDTH 667 0
DWIDTH 8 0
BBX 7 7 0 0
BITMAP
80
E0
1C
06
1C
E0
80
ENDCHAR

STARTCHAR question
ENCODING 63
SWIDTH 563 0
DWIDTH 7 0
BBX 6 9 0 0
BITMAP
78
CC
0C
0C
38
20
00
30
30
ENDCHAR

STARTCHAR at
ENCODING 64
SWIDTH 979 0
DWIDTH 12 0
BBX 11 12 1 -3
BITMAP
1F00
30C0
4F60
5320
A320
A220
A260
A640
9FA0
4040
20C0
1F00
ENDCHAR

STARTCHAR A
ENCODING 65
SWIDTH 698 0
DWIDTH 8 0
BBX 9 9 0 0
BITMAP
3E00
1400
1400
1600
3600
3E00
2200
2300
F780
ENDCHAR

STARTCHAR B
ENCODING 66
SWIDTH 698 0
DWIDTH 8 0
BBX 7 9 1 0
BITMAP
FC
66
66
66
7C
66
66
66
FC
ENDCHAR

STARTCHAR C
ENCODING 67
SWIDTH 781 0
DWIDTH 9 0
BBX 8 9 1 0
BITMAP
3D
63
C0
C0
C0
C0
C3
63
3C
ENDCHAR

STARTCHAR D
ENCODING 68
SWIDTH 802 0
DWIDTH 10 0
BBX 8 9 1 0
BITMAP
FC
66
63
63
63
63
63
66
FC
ENDCHAR

STARTCHAR E
ENCODING 69
SWIDTH 667 0
DWIDTH 8 0
BBX 7 9 0 0
BITMAP
FE
62
60
60
78
60
60
62
FE
ENDCHAR

STARTCHAR F
ENCODING 70
SWIDTH 646 0
DWIDTH 8 0
BBX 7 9 0 0
BITMAP
FE
62
60
60
78
60
60
60
F0
ENDCHAR

STARTCHAR G
ENCODING 71
SWIDTH 844 0
DWIDTH 10 0
BBX 8 9 1 0
BITMAP
3A
66
C0
C0
C0
C7
C3
66
3C
ENDCHAR

STARTCHAR H
ENCODING 72
SWIDTH 760 0
DWIDTH 9 0
BBX 8 9 1 0
BITMAP
FF
66
66
66
7E
66
66
66
FF
ENDCHAR

STARTCHAR I
ENCODING 73
SWIDTH 427 0
DWIDTH 5 0
BBX 4 9 1 0
BITMAP
F0
60
60
60
60
60
60
60
F0
ENDCHAR

STARTCHAR J
ENCODING 74
SWIDTH 406 0
DWIDTH 5 0
BBX 4 12 0 -3
BITMAP
F0
60
60
60
60
60
60
60
60
60
60
C0
ENDCHAR

STARTCHAR K
ENCODING 75
SWIDTH 781 0
DWIDTH 9 0
BBX 9 9 0 0
BITMAP
F780
6200
6400
6800
7C00
6C00
6600
6700
F780
ENDCHAR

STARTCHAR L
ENCODING 76
SWIDTH 646 0
DWIDTH 8 0
BBX 7 9 0 0
BITMAP
F0
60
60
60
60
62
62
62
FE
ENDCHAR

STARTCHAR M
ENCODING 77
SWIDTH 1042 0
DWIDTH 13 0
BBX 12 9 0 0
BITMAP
F0F0
79E0
5960
5960
5F60
4E60
4E60
4C60
E4F0
ENDCHAR

STARTCHAR N
ENCODING 78
SWIDTH 792 0
DWIDTH 10 0
BBX 8 9 1 0
BITMAP
E7
72
72
5A
5A
4E
4E
46
E6
ENDCHAR

STARTCHAR O
ENCODING 79
SWIDTH 854 0
DWIDTH 10 0
BBX 9 9 1 0
BITMAP
3E00
6300
C180
C180
C180
C180
C180
6300
3E00
ENDCHAR

STARTCHAR P
ENCODING 80
SWIDTH 667 0
DWIDTH 8 0
BBX 7 9 1 0
BITMAP
FC
66
66
66
66
7C
60
60
F0
ENDCHAR

STARTCHAR Q
ENCODING 81
SWIDTH 854 0
DWIDTH 10 0
BBX 9 11 1 -2
BITMAP
3E00
6300
C180
C180
C180
C180
C180
6300
3E00
3800
0600
ENDCHAR

STARTCHAR R
ENCODING 82
SWIDTH 729 0
DWIDTH 9 0
BBX 8 9 1 0
BITMAP
FC
66
66
66
7E
6C
6E
66
F7
ENDCHAR

STARTCHAR S
ENCODING 83
SWIDTH 531 0
DWIDTH 6 0
BBX 6 9 0 0
BITMAP
7C
CC
C0
F0
78
1C
0C
CC
F8
ENDCHAR

STARTCHAR T
ENCODING 84
SWIDTH 677 0
DWIDTH 8 0
BBX 8 9 0 0
BITMAP
FF
99
99
18
18
18
18
18
3C
ENDCHAR

STARTCHAR U
ENCODING 85
SWIDTH 677 0
DWIDTH 8 0
BBX 7 9 1 0
BITMAP
FE
64
64
64
64
64
64
64
38
ENDCHAR

STARTCHAR V
ENCODING 86
SWIDTH 698 0
DWIDTH 8 0
BBX 8 9 0 0
BITMAP
F7
62
72
36
34
34
1C
18
18
ENDCHAR

STARTCHAR W
ENCODING 87
SWIDTH 990 0
DWIDTH 12 0
BBX 12 9 0 0
BITMAP
F770
6620
6640
3740
3F40
3FC0
3980
1980
1980
ENDCHAR

STARTCHAR X
ENCODING 88
SWIDTH 740 0
DWIDTH 9 0
BBX 9 9 0 0
BITMAP
F780
7200
3400
1C00
1C00
1C00
3E00
2600
F780
ENDCHAR

STARTCHAR Y
ENCODING 89
SWIDTH 698 0
DWIDTH 8 0
BBX 8 9 0 0
BITMAP
F7
62
34
3C
18
18
18
18
3C
ENDCHAR

STARTCHAR Z
ENCODING 90
SWIDTH 646 0
DWIDTH 8 0
BBX 5 9 1 0
BITMAP
F8
98
38
30
70
60
E0
C8
F8
ENDCHAR

STARTCHAR bracketleft
ENCODING 91
SWIDTH 417 0
DWIDTH 5 0
BBX 3 12 1 -3
BITMAP
E0
C0
C0
C0
C0
C0
C0
C0
C0
C0
C0
E0
ENDCHAR

STARTCHAR backslash
ENCODING 92
SWIDTH 508 0
DWIDTH 8 0
BBX 6 9 1 0
BITMAP
C0
40
60
20
30
10
18
08
0C
ENDCHAR

STARTCHAR bracketright
ENCODING 93
SWIDTH 417 0
DWIDTH 5 0
BBX 3 12 1 -3
BITMAP
E0
60
60
60
60
60
60
60
60
60
60
E0
ENDCHAR

STARTCHAR asciicircum
ENCODING 94
SWIDTH 583 0
DWIDTH 7 0
BBX 5 4 1 5
BITMAP
20
50
50
88
ENDCHAR

STARTCHAR underscore
ENCODING 95
SWIDTH 500 0
DWIDTH 6 0
BBX 6 1 0 -3
BITMAP
FC
ENDCHAR

STARTCHAR quoteleft
ENCODING 96
SWIDTH 354 0
DWIDTH 4 0
BBX 2 4 1 5
BITMAP
C0
80
C0
C0
ENDCHAR

STARTCHAR a
ENCODING 97
SWIDTH 583 0
DWIDTH 7 0
BBX 7 6 0 0
BITMAP
F8
0C
7C
CC
CC
7E
ENDCHAR

STARTCHAR b
ENCODING 98
SWIDTH 625 0
DWIDTH 8 0
BBX 7 9 0 0
BITMAP
E0
60
60
7C
66
66
66
66
FC
ENDCHAR

STARTCHAR c
ENCODING 99
SWIDTH 563 0
DWIDTH 7 0
BBX 6 6 0 0
BITMAP
7C
CC
C0
C0
CC
78
ENDCHAR

STARTCHAR d
ENCODING 100
SWIDTH 625 0
DWIDTH 8 0
BBX 7 9 0 0
BITMAP
1C
0C
0C
7C
CC
CC
CC
CC
7E
ENDCHAR

STARTCHAR e
ENCODING 101
SWIDTH 573 0
DWIDTH 7 0
BBX 6 6 0 0
BITMAP
78
CC
FC
C0
CC
78
ENDCHAR

STARTCHAR f
ENCODING 102
SWIDTH 354 0
DWIDTH 4 0
BBX 5 9 0 0
BITMAP
38
70
60
F0
60
60
60
60
F0
ENDCHAR

STARTCHAR g
ENCODING 103
SWIDTH 625 0
DWIDTH 8 0
BBX 7 9 0 -3
BITMAP
7E
CC
CC
CC
CC
7C
0C
0C
F8
ENDCHAR

STARTCHAR h
ENCODING 104
SWIDTH 625 0
DWIDTH 8 0
BBX 7 9 0 0
BITMAP
E0
60
60
7C
6C
6C
6C
6C
FE
ENDCHAR

STARTCHAR i
ENCODING 105
SWIDTH 354 0
DWIDTH 4 0
BBX 4 9 0 0
BITMAP
60
60
00
E0
60
60
60
60
F0
ENDCHAR

STARTCHAR j
ENCODING 106
SWIDTH 354 0
DWIDTH 4 0
BBX 3 12 0 -3
BITMAP
60
60
00
E0
60
60
60
60
60
60
60
C0
ENDCHAR

STARTCHAR k
ENCODING 107
SWIDTH 646 0
DWIDTH 8 0
BBX 7 9 0 0
BITMAP
E0
60
60
6E
6C
78
68
6C
F6
ENDCHAR

STARTCHAR l
ENCODING 108
SWIDTH 354 0
DWIDTH 4 0
BBX 4 9 0 0
BITMAP
E0
60
60
60
60
60
60
60
F0
ENDCHAR

STARTCHAR m
ENCODING 109
SWIDTH 990 0
DWIDTH 12 0
BBX 12 6 0 0
BITMAP
FDC0
6660
6660
6660
6660
F770
ENDCHAR

STARTCHAR n
ENCODING 110
SWIDTH 625 0
DWIDTH 8 0
BBX 7 6 0 0
BITMAP
FC
6C
6C
6C
6C
FE
ENDCHAR

STARTCHAR o
ENCODING 111
SWIDTH 573 0
DWIDTH 7 0
BBX 6 6 0 0
BITMAP
78
CC
CC
CC
CC
78
ENDCHAR

STARTCHAR p
ENCODING 112
SWIDTH 625 0
DWIDTH 8 0
BBX 7 9 0 -3
BITMAP
FC
66
66
66
66
7C
60
60
F0
ENDCHAR

STARTCHAR q
ENCODING 113
SWIDTH 625 0
DWIDTH 8 0
BBX 7 9 0 -3
BITMAP
7E
CC
CC
CC
CC
7C
0C
0C
1E
ENDCHAR

STARTCHAR r
ENCODING 114
SWIDTH 448 0
DWIDTH 5 0
BBX 5 6 0 0
BITMAP
F8
78
70
60
60
F0
ENDCHAR

STARTCHAR s
ENCODING 115
SWIDTH 510 0
DWIDTH 6 0
BBX 5 6 1 0
BITMAP
78
98
E0
38
88
F0
ENDCHAR

STARTCHAR t
ENCODING 116
SWIDTH 344 0
DWIDTH 4 0
BBX 4 8 0 0
BITMAP
20
60
F0
60
60
60
60
70
ENDCHAR

STARTCHAR u
ENCODING 117
SWIDTH 625 0
DWIDTH 8 0
BBX 7 6 0 0
BITMAP
FC
6C
6C
6C
6C
7E
ENDCHAR

STARTCHAR v
ENCODING 118
SWIDTH 573 0
DWIDTH 7 0
BBX 7 6 0 0
BITMAP
EE
64
68
28
38
10
ENDCHAR

STARTCHAR w
ENCODING 119
SWIDTH 813 0
DWIDTH 10 0
BBX 10 6 0 0
BITMAP
EDC0
6C80
7F00
3700
3300
3300
ENDCHAR

STARTCHAR x
ENCODING 120
SWIDTH 563 0
DWIDTH 7 0
BBX 6 6 0 0
BITMAP
CC
78
30
38
78
CC
ENDCHAR

STARTCHAR y
ENCODING 121
SWIDTH 594 0
DWIDTH 7 0
BBX 7 9 0 -3
BITMAP
EE
64
6C
28
38
38
10
10
60
ENDCHAR

STARTCHAR z
ENCODING 122
SWIDTH 531 0
DWIDTH 6 0
BBX 5 6 1 0
BITMAP
F8
98
30
60
C8
F8
ENDCHAR

STARTCHAR braceleft
ENCODING 123
SWIDTH 385 0
DWIDTH 5 0
BBX 3 12 1 -3
BITMAP
60
40
40
40
40
40
40
C0
40
40
40
60
ENDCHAR

STARTCHAR bar
ENCODING 124
SWIDTH 611 0
DWIDTH 8 0
BBX 1 12 3 -3
BITMAP
80
80
80
80
80
80
80
80
80
80
80
80
ENDCHAR

STARTCHAR braceright
ENCODING 125
SWIDTH 385 0
DWIDTH 5 0
BBX 3 12 1 -3
BITMAP
C0
40
40
40
40
40
40
60
40
40
40
C0
ENDCHAR

STARTCHAR asciitilde
ENCODING 126
SWIDTH 583 0
DWIDTH 7 0
BBX 6 2 1 4
BITMAP
E4
9C
ENDCHAR

STARTCHAR exclamdown
ENCODING 161
SWIDTH 354 0
DWIDTH 4 0
BBX 3 8 2 -2
BITMAP
60
60
00
40
C0
C0
C0
C0
ENDCHAR

STARTCHAR cent
ENCODING 162
SWIDTH 563 0
DWIDTH 7 0
BBX 6 12 0 -3
BITMAP
08
08
10
74
DC
D0
E0
EC
78
20
40
40
ENDCHAR

STARTCHAR sterling
ENCODING 163
SWIDTH 573 0
DWIDTH 7 0
BBX 6 9 1 0
BITMAP
38
64
60
20
F8
10
F4
BC
D8
ENDCHAR

STARTCHAR currency
ENCODING 164
SWIDTH 667 0
DWIDTH 8 0
BBX 5 6 2 1
BITMAP
F8
D8
88
88
D8
F8
ENDCHAR

STARTCHAR yen
ENCODING 165
SWIDTH 698 0
DWIDTH 8 0
BBX 8 9 0 0
BITMAP
F7
62
FF
34
FF
18
18
18
3C
ENDCHAR

STARTCHAR brokenbar
ENCODING 166
SWIDTH 611 0
DWIDTH 8 0
BBX 1 12 3 -3
BITMAP
80
80
80
80
80
80
00
00
80
80
80
80
ENDCHAR

STARTCHAR section
ENCODING 167
SWIDTH 521 0
DWIDTH 6 0
BBX 6 12 0 -3
BITMAP
70
C8
C0
70
FC
C4
84
E4
3C
0C
4C
38
ENDCHAR

STARTCHAR dieresis
ENCODING 168
SWIDTH 333 0
DWIDTH 4 0
BBX 5 2 0 7
BITMAP
D8
D8
ENDCHAR

STARTCHAR copyright
ENCODING 169
SWIDTH 740 0
DWIDTH 9 0
BBX 9 9 0 0
BITMAP
3E00
6300
D980
A480
A080
A480
D980
6300
3E00
ENDCHAR

STARTCHAR ordfeminine
ENCODING 170
SWIDTH 396 0
DWIDTH 5 0
BBX 4 4 1 5
BITMAP
E0
E0
A0
F0
ENDCHAR

STARTCHAR guillemotleft
ENCODING 171
SWIDTH 542 0
DWIDTH 7 0
BBX 6 6 0 0
BITMAP
D8
48
6C
6C
48
D8
ENDCHAR

STARTCHAR logicalnot
ENCODING 172
SWIDTH 668 0
DWIDTH 8 0
BBX 6 4 1 2
BITMAP
FC
04
04
04
ENDCHAR

STARTCHAR hyphen
ENCODING 173
SWIDTH 344 0
DWIDTH 4 0
BBX 3 1 1 2
BITMAP
E0
ENDCHAR

STARTCHAR registered
ENCODING 174
SWIDTH 740 0
DWIDTH 9 0
BBX 10 9 0 0
BITMAP
1E00
6180
5E80
9240
9E40
9440
5280
6180
1E00
ENDCHAR

STARTCHAR macron
ENCODING 175
SWIDTH 333 0
DWIDTH 4 0
BBX 5 1 0 6
BITMAP
F8
ENDCHAR

STARTCHAR degree
ENCODING 176
SWIDTH 396 0
DWIDTH 5 0
BBX 4 4 0 5
BITMAP
60
90
90
60
ENDCHAR

STARTCHAR plusminus
ENCODING 177
SWIDTH 668 0
DWIDTH 8 0
BBX 7 9 0 0
BITMAP
10
10
10
FE
10
10
10
00
FE
ENDCHAR

STARTCHAR twosuperior
ENCODING 178
SWIDTH 333 0
DWIDTH 4 0
BBX 3 5 -2 4
BITMAP
E0
A0
60
A0
E0
ENDCHAR

STARTCHAR threesuperior
ENCODING 179
SWIDTH 333 0
DWIDTH 4 0
BBX 3 5 -2 4
BITMAP
E0
20
40
A0
E0
ENDCHAR

STARTCHAR acute
ENCODING 180
SWIDTH 333 0
DWIDTH 4 0
BBX 3 2 1 7
BITMAP
60
80
ENDCHAR

STARTCHAR mu
ENCODING 181
SWIDTH 615 0
DWIDTH 7 0
BBX 6 9 1 -3
BITMAP
CC
CC
CC
CC
CC
FC
C0
C0
C0
ENDCHAR

STARTCHAR paragraph
ENCODING 182
SWIDTH 552 0
DWIDTH 7 0
BBX 7 12 0 -3
BITMAP
7E
F4
F4
74
14
14
14
14
14
14
14
14
ENDCHAR

STARTCHAR periodcentered
ENCODING 183
SWIDTH 365 0
DWIDTH 4 0
BBX 2 2 1 4
BITMAP
C0
C0
ENDCHAR

STARTCHAR cedilla
ENCODING 184
SWIDTH 333 0
DWIDTH 4 0
BBX 4 2 0 -3
BITMAP
70
F0
ENDCHAR

STARTCHAR onesuperior
ENCODING 185
SWIDTH 333 0
DWIDTH 4 0
BBX 3 5 -2 4
BITMAP
C0
40
40
40
E0
ENDCHAR

STARTCHAR ordmasculine
ENCODING 186
SWIDTH 375 0
DWIDTH 5 0
BBX 4 4 0 5
BITMAP
60
90
90
60
ENDCHAR

STARTCHAR guillemotright
ENCODING 187
SWIDTH 542 0
DWIDTH 7 0
BBX 6 6 0 0
BITMAP
6C
48
D8
D8
48
6C
ENDCHAR

STARTCHAR onequarter
ENCODING 188
SWIDTH 927 0
DWIDTH 12 0
BBX 11 9 2 0
BITMAP
C180
4100
4200
4200
E440
08C0
0940
11E0
20E0
ENDCHAR

STARTCHAR onehalf
ENCODING 189
SWIDTH 927 0
DWIDTH 12 0
BBX 11 9 2 0
BITMAP
C180
4100
4200
4200
E4E0
08A0
0860
10A0
20E0
ENDCHAR

STARTCHAR threequarters
ENCODING 190
SWIDTH 927 0
DWIDTH 12 0
BBX 11 9 2 0
BITMAP
E180
2100
4200
A200
E440
08C0
0940
11E0
20E0
ENDCHAR

STARTCHAR questiondown
ENCODING 191
SWIDTH 563 0
DWIDTH 7 0
BBX 6 9 0 -3
BITMAP
30
30
00
10
70
F0
C0
CC
78
ENDCHAR

STARTCHAR Agrave
ENCODING 192
SWIDTH 698 0
DWIDTH 8 0
BBX 9 12 0 0
BITMAP
1800
0400
0000
3E00
1400
1400
1600
3600
3E00
2200
2300
F780
ENDCHAR

STARTCHAR Aacute
ENCODING 193
SWIDTH 698 0
DWIDTH 8 0
BBX 9 12 0 0
BITMAP
0C00
1000
0000
3E00
1400
1400
1600
3600
3E00
2200
2300
F780
ENDCHAR

STARTCHAR Acircumflex
ENCODING 194
SWIDTH 698 0
DWIDTH 8 0
BBX 9 12 0 0
BITMAP
1C00
3600
0000
3E00
1400
1400
1600
3600
3E00
2200
2300
F780
ENDCHAR

STARTCHAR Atilde
ENCODING 195
SWIDTH 698 0
DWIDTH 8 0
BBX 9 12 0 0
BITMAP
3A00
2E00
0000
3E00
1400
1400
1600
3600
3E00
2200
2300
F780
ENDCHAR

STARTCHAR Adieresis
ENCODING 196
SWIDTH 698 0
DWIDTH 8 0
BBX 9 12 0 0
BITMAP
3600
3600
0000
3E00
1400
1400
1600
3600
3E00
2200
2300
F780
ENDCHAR

STARTCHAR Aring
ENCODING 197
SWIDTH 698 0
DWIDTH 8 0
BBX 9 13 0 0
BITMAP
1C00
1400
1C00
0000
3E00
1400
1400
1600
3600
3E00
2200
2300
F780
ENDCHAR

STARTCHAR AE
ENCODING 198
SWIDTH 990 0
DWIDTH 12 0
BBX 11 9 0 0
BITMAP
3FE0
1E20
1600
3600
3F00
2600
6600
4620
EFE0
ENDCHAR

STARTCHAR Ccedilla
ENCODING 199
SWIDTH 781 0
DWIDTH 9 0
BBX 8 11 1 -2
BITMAP
3D
63
C0
C0
C0
C0
C3
63
3C
1C
3C
ENDCHAR

STARTCHAR Egrave
ENCODING 200
SWIDTH 667 0
DWIDTH 8 0
BBX 7 12 0 0
BITMAP
30
08
00
FE
62
60
60
78
60
60
62
FE
ENDCHAR

STARTCHAR Eacute
ENCODING 201
SWIDTH 667 0
DWIDTH 8 0
BBX 7 12 0 0
BITMAP
18
20
00
FE
62
60
60
78
60
60
62
FE
ENDCHAR

STARTCHAR Ecircumflex
ENCODING 202
SWIDTH 667 0
DWIDTH 8 0
BBX 7 12 0 0
BITMAP
38
6C
00
FE
62
60
60
78
60
60
62
FE
ENDCHAR

STARTCHAR Edieresis
ENCODING 203
SWIDTH 667 0
DWIDTH 8 0
BBX 7 12 0 0
BITMAP
6C
6C
00
FE
62
60
60
78
60
60
62
FE
ENDCHAR

STARTCHAR Igrave
ENCODING 204
SWIDTH 427 0
DWIDTH 5 0
BBX 4 12 1 0
BITMAP
C0
20
00
F0
60
60
60
60
60
60
60
F0
ENDCHAR

STARTCHAR Iacute
ENCODING 205
SWIDTH 427 0
DWIDTH 5 0
BBX 4 12 1 0
BITMAP
30
40
00
F0
60
60
60
60
60
60
60
F0
ENDCHAR

STARTCHAR Icircumflex
ENCODING 206
SWIDTH 427 0
DWIDTH 5 0
BBX 5 12 1 0
BITMAP
70
D8
00
F0
60
60
60
60
60
60
60
F0
ENDCHAR

STARTCHAR Idieresis
ENCODING 207
SWIDTH 427 0
DWIDTH 5 0
BBX 5 12 2 0
BITMAP
D8
D8
00
78
30
30
30
30
30
30
30
78
ENDCHAR

STARTCHAR Eth
ENCODING 208
SWIDTH 802 0
DWIDTH 10 0
BBX 8 9 1 0
BITMAP
FC
66
63
63
F3
63
63
66
FC
ENDCHAR

STARTCHAR Ntilde
ENCODING 209
SWIDTH 792 0
DWIDTH 10 0
BBX 8 12 1 0
BITMAP
74
5C
00
E7
72
72
5A
5A
4E
4E
46
E6
ENDCHAR

STARTCHAR Ograve
ENCODING 210
SWIDTH 854 0
DWIDTH 10 0
BBX 9 12 1 0
BITMAP
1800
0400
0000
3E00
6300
C180
C180
C180
C180
C180
6300
3E00
ENDCHAR

STARTCHAR Oacute
ENCODING 211
SWIDTH 854 0
DWIDTH 10 0
BBX 9 12 1 0
BITMAP
0C00
1000
0000
3E00
6300
C180
C180
C180
C180
C180
6300
3E00
ENDCHAR

STARTCHAR Ocircumflex
ENCODING 212
SWIDTH 854 0
DWIDTH 10 0
BBX 9 12 1 0
BITMAP
1C00
3600
0000
3E00
6300
C180
C180
C180
C180
C180
6300
3E00
ENDCHAR

STARTCHAR Otilde
ENCODING 213
SWIDTH 854 0
DWIDTH 10 0
BBX 9 12 1 0
BITMAP
3A00
2E00
0000
3E00
6300
C180
C180
C180
C180
C180
6300
3E00
ENDCHAR

STARTCHAR Odieresis
ENCODING 214
SWIDTH 854 0
DWIDTH 10 0
BBX 9 12 1 0
BITMAP
3600
3600
0000
3E00
6300
C180
C180
C180
C180
C180
6300
3E00
ENDCHAR

STARTCHAR multiply
ENCODING 215
SWIDTH 667 0
DWIDTH 8 0
BBX 6 6 1 1
BITMAP
C4
6C
38
38
EC
84
ENDCHAR

STARTCHAR Oslash
ENCODING 216
SWIDTH 854 0
DWIDTH 10 0
BBX 9 9 1 0
BITMAP
3E80
6300
C380
C780
CD80
D980
D180
6300
7E00
ENDCHAR

STARTCHAR Ugrave
ENCODING 217
SWIDTH 677 0
DWIDTH 8 0
BBX 7 12 1 0
BITMAP
30
08
00
FE
64
64
64
64
64
64
64
38
ENDCHAR

STARTCHAR Uacute
ENCODING 218
SWIDTH 677 0
DWIDTH 8 0
BBX 7 12 1 0
BITMAP
18
20
00
FE
64
64
64
64
64
64
64
38
ENDCHAR

STARTCHAR Ucircumflex
ENCODING 219
SWIDTH 677 0
DWIDTH 8 0
BBX 7 12 1 0
BITMAP
38
6C
00
FE
64
64
64
64
64
64
64
38
ENDCHAR

STARTCHAR Udieresis
ENCODING 220
SWIDTH 677 0
DWIDTH 8 0
BBX 7 12 1 0
BITMAP
6C
6C
00
FE
64
64
64
64
64
64
64
38
ENDCHAR

STARTCHAR Yacute
ENCODING 221
SWIDTH 698 0
DWIDTH 8 0
BBX 8 12 0 0
BITMAP
0C
10
00
F7
62
34
3C
18
18
18
18
3C
ENDCHAR

STARTCHAR Thorn
ENCODING 222
SWIDTH 667 0
DWIDTH 8 0
BBX 7 9 1 0
BITMAP
F0
60
7C
66
66
66
7C
60
F0
ENDCHAR

STARTCHAR germandbls
ENCODING 223
SWIDTH 646 0
DWIDTH 8 0
BBX 7 9 0 0
BITMAP
3C
66
66
66
6E
66
66
66
EC
ENDCHAR

STARTCHAR agrave
ENCODING 224
SWIDTH 583 0
DWIDTH 7 0
BBX 7 9 0 0
BITMAP
60
10
00
F8
0C
7C
CC
CC
7E
ENDCHAR

STARTCHAR aacute
ENCODING 225
SWIDTH 583 0
DWIDTH 7 0
BBX 7 9 0 0
BITMAP
18
20
00
F8
0C
7C
CC
CC
7E
ENDCHAR

STARTCHAR acircumflex
ENCODING 226
SWIDTH 583 0
DWIDTH 7 0
BBX 7 9 0 0
BITMAP
38
6C
00
F8
0C
7C
CC
CC
7E
ENDCHAR

STARTCHAR atilde
ENCODING 227
SWIDTH 583 0
DWIDTH 7 0
BBX 7 9 0 0
BITMAP
74
5C
00
F8
0C
7C
CC
CC
7E
ENDCHAR

STARTCHAR adieresis
ENCODING 228
SWIDTH 583 0
DWIDTH 7 0
BBX 7 9 0 0
BITMAP
6C
6C
00
F8
0C
7C
CC
CC
7E
ENDCHAR

STARTCHAR aring
ENCODING 229
SWIDTH 583 0
DWIDTH 7 0
BBX 7 10 0 0
BITMAP
38
28
38
00
F8
0C
7C
CC
CC
7E
ENDCHAR

STARTCHAR ae
ENCODING 230
SWIDTH 885 0
DWIDTH 11 0
BBX 10 6 0 0
BITMAP
F780
0CC0
7FC0
CC00
CCC0
7780
ENDCHAR

STARTCHAR ccedilla
ENCODING 231
SWIDTH 563 0
DWIDTH 7 0
BBX 6 8 0 -2
BITMAP
7C
CC
C0
C0
CC
78
38
78
ENDCHAR

STARTCHAR egrave
ENCODING 232
SWIDTH 573 0
DWIDTH 7 0
BBX 6 9 0 0
BITMAP
60
10
00
78
CC
FC
C0
CC
78
ENDCHAR

STARTCHAR eacute
ENCODING 233
SWIDTH 573 0
DWIDTH 7 0
BBX 6 9 0 0
BITMAP
18
20
00
78
CC
FC
C0
CC
78
ENDCHAR

STARTCHAR ecircumflex
ENCODING 234
SWIDTH 573 0
DWIDTH 7 0
BBX 6 9 0 0
BITMAP
38
6C
00
78
CC
FC
C0
CC
78
ENDCHAR

STARTCHAR edieresis
ENCODING 235
SWIDTH 573 0
DWIDTH 7 0
BBX 6 9 0 0
BITMAP
D8
D8
00
78
CC
FC
C0
CC
78
ENDCHAR

STARTCHAR igrave
ENCODING 236
SWIDTH 354 0
DWIDTH 4 0
BBX 4 9 0 0
BITMAP
C0
20
00
E0
60
60
60
60
F0
ENDCHAR

STARTCHAR iacute
ENCODING 237
SWIDTH 354 0
DWIDTH 4 0
BBX 4 9 0 0
BITMAP
30
40
00
E0
60
60
60
60
F0
ENDCHAR

STARTCHAR icircumflex
ENCODING 238
SWIDTH 354 0
DWIDTH 4 0
BBX 5 9 1 0
BITMAP
70
D8
00
70
30
30
30
30
78
ENDCHAR

STARTCHAR idieresis
ENCODING 239
SWIDTH 354 0
DWIDTH 4 0
BBX 5 9 1 0
BITMAP
D8
D8
00
70
30
30
30
30
78
ENDCHAR

STARTCHAR eth
ENCODING 240
SWIDTH 573 0
DWIDTH 7 0
BBX 6 9 0 0
BITMAP
48
F0
08
7C
CC
CC
CC
CC
78
ENDCHAR

STARTCHAR ntilde
ENCODING 241
SWIDTH 625 0
DWIDTH 8 0
BBX 7 9 0 0
BITMAP
74
5C
00
FC
6C
6C
6C
6C
FE
ENDCHAR

STARTCHAR ograve
ENCODING 242
SWIDTH 573 0
DWIDTH 7 0
BBX 6 9 0 0
BITMAP
60
10
00
78
CC
CC
CC
CC
78
ENDCHAR

STARTCHAR oacute
ENCODING 243
SWIDTH 573 0
DWIDTH 7 0
BBX 6 9 0 0
BITMAP
18
20
00
78
CC
CC
CC
CC
78
ENDCHAR

STARTCHAR ocircumflex
ENCODING 244
SWIDTH 573 0
DWIDTH 7 0
BBX 6 9 0 0
BITMAP
38
6C
00
78
CC
CC
CC
CC
78
ENDCHAR

STARTCHAR otilde
ENCODING 245
SWIDTH 573 0
DWIDTH 7 0
BBX 6 9 0 0
BITMAP
74
5C
00
78
CC
CC
CC
CC
78
ENDCHAR

STARTCHAR odieresis
ENCODING 246
SWIDTH 573 0
DWIDTH 7 0
BBX 6 9 0 0
BITMAP
D8
D8
00
78
CC
CC
CC
CC
78
ENDCHAR

STARTCHAR divide
ENCODING 247
SWIDTH 668 0
DWIDTH 8 0
BBX 6 7 1 1
BITMAP
30
30
00
FC
00
30
30
ENDCHAR

STARTCHAR oslash
ENCODING 248
SWIDTH 573 0
DWIDTH 7 0
BBX 6 6 0 0
BITMAP
7C
CC
DC
EC
CC
F8
ENDCHAR

STARTCHAR ugrave
ENCODING 249
SWIDTH 625 0
DWIDTH 8 0
BBX 7 9 0 0
BITMAP
30
08
00
FC
6C
6C
6C
6C
7E
ENDCHAR

STARTCHAR uacute
ENCODING 250
SWIDTH 625 0
DWIDTH 8 0
BBX 7 9 0 0
BITMAP
18
20
00
FC
6C
6C
6C
6C
7E
ENDCHAR

STARTCHAR ucircumflex
ENCODING 251
SWIDTH 625 0
DWIDTH 8 0
BBX 7 9 0 0
BITMAP
38
6C
00
FC
6C
6C
6C
6C
7E
ENDCHAR

STARTCHAR udieresis
ENCODING 252
SWIDTH 625 0
DWIDTH 8 0
BBX 7 9 0 0
BITMAP
6C
6C
00
FC
6C
6C
6C
6C
7E
ENDCHAR

STARTCHAR yacute
ENCODING 253
SWIDTH 594 0
DWIDTH 7 0
BBX 7 12 0 -3
BITMAP
18
20
00
EE
64
6C
28
38
38
10
10
60
ENDCHAR

STARTCHAR thorn
ENCODING 254
SWIDTH 625 0
DWIDTH 8 0
BBX 7 12 0 -3
BITMAP
E0
60
60
7C
66
66
66
66
7C
60
60
F0
ENDCHAR

STARTCHAR ydieresis
ENCODING 255
SWIDTH 594 0
DWIDTH 7 0
BBX 7 12 0 -3
BITMAP
6C
6C
00
EE
64
6C
28
38
38
10
10
60
ENDCHAR
ENDFONT
